<svg width="1231" height="17" viewBox="0 0 1231 17" fill="none" xmlns="http://www.w3.org/2000/svg">
<path d="M32.1898 6.16663H20.5369L20.1193 6.4953V16.6653H23.3251V12.837L23.619 12.5515H32.1898C34.3572 12.5515 35.3544 11.9777 35.3544 10.5067V8.16829C35.3544 6.73776 34.3572 6.16663 32.1898 6.16663ZM32.1898 9.9248C32.1898 10.6199 31.731 10.733 30.6899 10.733H23.674L23.3388 10.4474V8.29222L23.6328 8.00665H30.7119C31.7118 8.00665 32.2118 8.12788 32.2118 8.81486V9.91672L32.1898 9.9248Z" fill="white"/>
<path d="M41.277 8.08749L44.068 12.0908L43.9004 12.4599H37.736L36.1537 14.378H45.3179L45.9826 14.7471L47.4001 16.6653H51.1059L42.9856 6.04541" fill="white"/>
<path d="M78.0543 14.6232V11.7649L78.3894 11.4793H84.595V9.68237H74.7661V16.6653H89.2595V14.8684H78.4307" fill="white"/>
<path d="M89.3858 6.16934H74.7661V8.1306H89.3858V6.16934Z" fill="white"/>
<path d="M58.4816 8.04708H70.2691C70.1015 6.57614 69.1428 6.16125 66.8106 6.16125H58.3552C55.6906 6.16125 54.8555 6.65157 54.8555 8.65323V14.2137C54.8555 16.175 55.6796 16.7057 58.3552 16.7057H66.8023C69.1758 16.7057 70.0988 16.2558 70.1757 14.7444H58.4733L58.1382 14.4185V8.29223" fill="white"/>
<path d="M12.2051 10.2508H3.66729L3.41731 9.96522V8.1683L3.66729 7.96355H15.2048L15.3697 7.59716C14.9961 6.61653 13.9549 6.12622 12.0732 6.12622H4.04089C1.37626 6.12622 0.543913 6.61653 0.543913 8.6182V9.80357C0.543913 11.7621 1.36802 12.2956 4.04089 12.2956H12.5814L12.8314 12.5407V14.4265L12.6226 14.7121H0.293932C0.293932 14.7121 0 14.8764 0 14.9168C0.208775 16.307 1.16749 16.6734 3.45852 16.6734H12.2051C14.8697 16.6734 15.746 16.183 15.746 14.1814V12.7428C15.746 10.7842 14.8697 10.2508 12.2051 10.2508Z" fill="white"/>
<path d="M98.591 6.12622H93.759L93.509 6.61653L98.841 10.4555C99.8409 9.88439 100.964 9.31326 102.137 8.73943" fill="white"/>
<path d="M102.923 13.3166L107.629 16.6653H112.461L112.67 16.2154L105.673 11.191C104.755 11.8861 103.797 12.5811 102.926 13.3166" fill="white"/>
<path d="M97.8824 16.6653H93.5091L93.1355 16.0941C96.0913 13.2735 109.343 1.27697 138.118 0C138.118 0 114.002 0.808209 97.8824 16.6653Z" fill="#B2B0B2"/>
<path d="M490.695 8.23242H487.115V12H485.99V3.46875H491.275V4.39453H487.115V7.3125H490.695V8.23242ZM496.168 12C496.105 11.875 496.055 11.6523 496.016 11.332C495.512 11.8555 494.91 12.1172 494.211 12.1172C493.586 12.1172 493.072 11.9414 492.67 11.5898C492.271 11.2344 492.072 10.7852 492.072 10.2422C492.072 9.58203 492.322 9.07031 492.822 8.70703C493.326 8.33984 494.033 8.15625 494.943 8.15625H495.998V7.6582C495.998 7.2793 495.885 6.97852 495.658 6.75586C495.432 6.5293 495.098 6.41602 494.656 6.41602C494.27 6.41602 493.945 6.51367 493.684 6.70898C493.422 6.9043 493.291 7.14062 493.291 7.41797H492.201C492.201 7.10156 492.312 6.79688 492.535 6.50391C492.762 6.20703 493.066 5.97266 493.449 5.80078C493.836 5.62891 494.26 5.54297 494.721 5.54297C495.451 5.54297 496.023 5.72656 496.438 6.09375C496.852 6.45703 497.066 6.95898 497.082 7.59961V10.5176C497.082 11.0996 497.156 11.5625 497.305 11.9062V12H496.168ZM494.369 11.1738C494.709 11.1738 495.031 11.0859 495.336 10.9102C495.641 10.7344 495.861 10.5059 495.998 10.2246V8.92383H495.148C493.82 8.92383 493.156 9.3125 493.156 10.0898C493.156 10.4297 493.27 10.6953 493.496 10.8867C493.723 11.0781 494.014 11.1738 494.369 11.1738ZM499.959 12H498.875V3H499.959V12ZM504.242 11.2324C504.629 11.2324 504.967 11.1152 505.256 10.8809C505.545 10.6465 505.705 10.3535 505.736 10.002H506.762C506.742 10.3652 506.617 10.7109 506.387 11.0391C506.156 11.3672 505.848 11.6289 505.461 11.8242C505.078 12.0195 504.672 12.1172 504.242 12.1172C503.379 12.1172 502.691 11.8301 502.18 11.2559C501.672 10.6777 501.418 9.88867 501.418 8.88867V8.70703C501.418 8.08984 501.531 7.54102 501.758 7.06055C501.984 6.58008 502.309 6.20703 502.73 5.94141C503.156 5.67578 503.658 5.54297 504.236 5.54297C504.947 5.54297 505.537 5.75586 506.006 6.18164C506.479 6.60742 506.73 7.16016 506.762 7.83984H505.736C505.705 7.42969 505.549 7.09375 505.268 6.83203C504.99 6.56641 504.646 6.43359 504.236 6.43359C503.686 6.43359 503.258 6.63281 502.953 7.03125C502.652 7.42578 502.502 7.99805 502.502 8.74805V8.95312C502.502 9.68359 502.652 10.2461 502.953 10.6406C503.254 11.0352 503.684 11.2324 504.242 11.2324ZM507.693 8.77148C507.693 8.15039 507.814 7.5918 508.057 7.0957C508.303 6.59961 508.643 6.2168 509.076 5.94727C509.514 5.67773 510.012 5.54297 510.57 5.54297C511.434 5.54297 512.131 5.8418 512.662 6.43945C513.197 7.03711 513.465 7.83203 513.465 8.82422V8.90039C513.465 9.51758 513.346 10.0723 513.107 10.5645C512.873 11.0527 512.535 11.4336 512.094 11.707C511.656 11.9805 511.152 12.1172 510.582 12.1172C509.723 12.1172 509.025 11.8184 508.49 11.2207C507.959 10.623 507.693 9.83203 507.693 8.84766V8.77148ZM508.783 8.90039C508.783 9.60352 508.945 10.168 509.27 10.5938C509.598 11.0195 510.035 11.2324 510.582 11.2324C511.133 11.2324 511.57 11.0176 511.895 10.5879C512.219 10.1543 512.381 9.54883 512.381 8.77148C512.381 8.07617 512.215 7.51367 511.883 7.08398C511.555 6.65039 511.117 6.43359 510.57 6.43359C510.035 6.43359 509.604 6.64648 509.275 7.07227C508.947 7.49805 508.783 8.10742 508.783 8.90039ZM515.85 5.66016L515.885 6.45703C516.369 5.84766 517.002 5.54297 517.783 5.54297C519.123 5.54297 519.799 6.29883 519.811 7.81055V12H518.727V7.80469C518.723 7.34766 518.617 7.00977 518.41 6.79102C518.207 6.57227 517.889 6.46289 517.455 6.46289C517.104 6.46289 516.795 6.55664 516.529 6.74414C516.264 6.93164 516.057 7.17773 515.908 7.48242V12H514.824V5.66016H515.85ZM528.465 8.25C528.238 8.51953 527.967 8.73633 527.65 8.90039C527.338 9.06445 526.994 9.14648 526.619 9.14648C526.127 9.14648 525.697 9.02539 525.33 8.7832C524.967 8.54102 524.686 8.20117 524.486 7.76367C524.287 7.32227 524.188 6.83594 524.188 6.30469C524.188 5.73438 524.295 5.2207 524.51 4.76367C524.729 4.30664 525.037 3.95703 525.436 3.71484C525.834 3.47266 526.299 3.35156 526.83 3.35156C527.674 3.35156 528.338 3.66797 528.822 4.30078C529.311 4.92969 529.555 5.78906 529.555 6.87891V7.19531C529.555 8.85547 529.227 10.0684 528.57 10.834C527.914 11.5957 526.924 11.9863 525.6 12.0059H525.389V11.0918H525.617C526.512 11.0762 527.199 10.8438 527.68 10.3945C528.16 9.94141 528.422 9.22656 528.465 8.25ZM526.795 8.25C527.158 8.25 527.492 8.13867 527.797 7.91602C528.105 7.69336 528.33 7.41797 528.471 7.08984V6.65625C528.471 5.94531 528.316 5.36719 528.008 4.92188C527.699 4.47656 527.309 4.25391 526.836 4.25391C526.359 4.25391 525.977 4.4375 525.688 4.80469C525.398 5.16797 525.254 5.64844 525.254 6.24609C525.254 6.82812 525.393 7.30859 525.67 7.6875C525.951 8.0625 526.326 8.25 526.795 8.25Z" fill="white"/>
<path d="M556.695 8.23242H553.115V12H551.99V3.46875H557.275V4.39453H553.115V7.3125H556.695V8.23242ZM562.168 12C562.105 11.875 562.055 11.6523 562.016 11.332C561.512 11.8555 560.91 12.1172 560.211 12.1172C559.586 12.1172 559.072 11.9414 558.67 11.5898C558.271 11.2344 558.072 10.7852 558.072 10.2422C558.072 9.58203 558.322 9.07031 558.822 8.70703C559.326 8.33984 560.033 8.15625 560.943 8.15625H561.998V7.6582C561.998 7.2793 561.885 6.97852 561.658 6.75586C561.432 6.5293 561.098 6.41602 560.656 6.41602C560.27 6.41602 559.945 6.51367 559.684 6.70898C559.422 6.9043 559.291 7.14062 559.291 7.41797H558.201C558.201 7.10156 558.312 6.79688 558.535 6.50391C558.762 6.20703 559.066 5.97266 559.449 5.80078C559.836 5.62891 560.26 5.54297 560.721 5.54297C561.451 5.54297 562.023 5.72656 562.438 6.09375C562.852 6.45703 563.066 6.95898 563.082 7.59961V10.5176C563.082 11.0996 563.156 11.5625 563.305 11.9062V12H562.168ZM560.369 11.1738C560.709 11.1738 561.031 11.0859 561.336 10.9102C561.641 10.7344 561.861 10.5059 561.998 10.2246V8.92383H561.148C559.82 8.92383 559.156 9.3125 559.156 10.0898C559.156 10.4297 559.27 10.6953 559.496 10.8867C559.723 11.0781 560.014 11.1738 560.369 11.1738ZM565.959 12H564.875V3H565.959V12ZM570.242 11.2324C570.629 11.2324 570.967 11.1152 571.256 10.8809C571.545 10.6465 571.705 10.3535 571.736 10.002H572.762C572.742 10.3652 572.617 10.7109 572.387 11.0391C572.156 11.3672 571.848 11.6289 571.461 11.8242C571.078 12.0195 570.672 12.1172 570.242 12.1172C569.379 12.1172 568.691 11.8301 568.18 11.2559C567.672 10.6777 567.418 9.88867 567.418 8.88867V8.70703C567.418 8.08984 567.531 7.54102 567.758 7.06055C567.984 6.58008 568.309 6.20703 568.73 5.94141C569.156 5.67578 569.658 5.54297 570.236 5.54297C570.947 5.54297 571.537 5.75586 572.006 6.18164C572.479 6.60742 572.73 7.16016 572.762 7.83984H571.736C571.705 7.42969 571.549 7.09375 571.268 6.83203C570.99 6.56641 570.646 6.43359 570.236 6.43359C569.686 6.43359 569.258 6.63281 568.953 7.03125C568.652 7.42578 568.502 7.99805 568.502 8.74805V8.95312C568.502 9.68359 568.652 10.2461 568.953 10.6406C569.254 11.0352 569.684 11.2324 570.242 11.2324ZM573.693 8.77148C573.693 8.15039 573.814 7.5918 574.057 7.0957C574.303 6.59961 574.643 6.2168 575.076 5.94727C575.514 5.67773 576.012 5.54297 576.57 5.54297C577.434 5.54297 578.131 5.8418 578.662 6.43945C579.197 7.03711 579.465 7.83203 579.465 8.82422V8.90039C579.465 9.51758 579.346 10.0723 579.107 10.5645C578.873 11.0527 578.535 11.4336 578.094 11.707C577.656 11.9805 577.152 12.1172 576.582 12.1172C575.723 12.1172 575.025 11.8184 574.49 11.2207C573.959 10.623 573.693 9.83203 573.693 8.84766V8.77148ZM574.783 8.90039C574.783 9.60352 574.945 10.168 575.27 10.5938C575.598 11.0195 576.035 11.2324 576.582 11.2324C577.133 11.2324 577.57 11.0176 577.895 10.5879C578.219 10.1543 578.381 9.54883 578.381 8.77148C578.381 8.07617 578.215 7.51367 577.883 7.08398C577.555 6.65039 577.117 6.43359 576.57 6.43359C576.035 6.43359 575.604 6.64648 575.275 7.07227C574.947 7.49805 574.783 8.10742 574.783 8.90039ZM581.85 5.66016L581.885 6.45703C582.369 5.84766 583.002 5.54297 583.783 5.54297C585.123 5.54297 585.799 6.29883 585.811 7.81055V12H584.727V7.80469C584.723 7.34766 584.617 7.00977 584.41 6.79102C584.207 6.57227 583.889 6.46289 583.455 6.46289C583.104 6.46289 582.795 6.55664 582.529 6.74414C582.264 6.93164 582.057 7.17773 581.908 7.48242V12H580.824V5.66016H581.85ZM597.148 12H596.018V8.05664H591.717V12H590.592V3.46875H591.717V7.13672H596.018V3.46875H597.148V12ZM601.607 12.1172C600.748 12.1172 600.049 11.8359 599.51 11.2734C598.971 10.707 598.701 9.95117 598.701 9.00586V8.80664C598.701 8.17773 598.82 7.61719 599.059 7.125C599.301 6.62891 599.637 6.24219 600.066 5.96484C600.5 5.68359 600.969 5.54297 601.473 5.54297C602.297 5.54297 602.938 5.81445 603.395 6.35742C603.852 6.90039 604.08 7.67773 604.08 8.68945V9.14062H599.785C599.801 9.76562 599.982 10.2715 600.33 10.6582C600.682 11.041 601.127 11.2324 601.666 11.2324C602.049 11.2324 602.373 11.1543 602.639 10.998C602.904 10.8418 603.137 10.6348 603.336 10.377L603.998 10.8926C603.467 11.709 602.67 12.1172 601.607 12.1172ZM601.473 6.43359C601.035 6.43359 600.668 6.59375 600.371 6.91406C600.074 7.23047 599.891 7.67578 599.82 8.25H602.996V8.16797C602.965 7.61719 602.816 7.19141 602.551 6.89062C602.285 6.58594 601.926 6.43359 601.473 6.43359ZM609.254 12C609.191 11.875 609.141 11.6523 609.102 11.332C608.598 11.8555 607.996 12.1172 607.297 12.1172C606.672 12.1172 606.158 11.9414 605.756 11.5898C605.357 11.2344 605.158 10.7852 605.158 10.2422C605.158 9.58203 605.408 9.07031 605.908 8.70703C606.412 8.33984 607.119 8.15625 608.029 8.15625H609.084V7.6582C609.084 7.2793 608.971 6.97852 608.744 6.75586C608.518 6.5293 608.184 6.41602 607.742 6.41602C607.355 6.41602 607.031 6.51367 606.77 6.70898C606.508 6.9043 606.377 7.14062 606.377 7.41797H605.287C605.287 7.10156 605.398 6.79688 605.621 6.50391C605.848 6.20703 606.152 5.97266 606.535 5.80078C606.922 5.62891 607.346 5.54297 607.807 5.54297C608.537 5.54297 609.109 5.72656 609.523 6.09375C609.938 6.45703 610.152 6.95898 610.168 7.59961V10.5176C610.168 11.0996 610.242 11.5625 610.391 11.9062V12H609.254ZM607.455 11.1738C607.795 11.1738 608.117 11.0859 608.422 10.9102C608.727 10.7344 608.947 10.5059 609.084 10.2246V8.92383H608.234C606.906 8.92383 606.242 9.3125 606.242 10.0898C606.242 10.4297 606.355 10.6953 606.582 10.8867C606.809 11.0781 607.1 11.1738 607.455 11.1738ZM613.865 10.5293L615.436 5.66016H616.543L614.27 12H613.443L611.146 5.66016H612.254L613.865 10.5293ZM619.66 10.4121L621.137 5.66016H622.297L619.748 12.9785C619.354 14.0332 618.727 14.5605 617.867 14.5605L617.662 14.543L617.258 14.4668V13.5879L617.551 13.6113C617.918 13.6113 618.203 13.5371 618.406 13.3887C618.613 13.2402 618.783 12.9688 618.916 12.5742L619.156 11.9297L616.895 5.66016H618.078L619.66 10.4121Z" fill="white"/>
<path d="M643.99 12V3.46875H646.398C647.141 3.46875 647.797 3.63281 648.367 3.96094C648.938 4.28906 649.377 4.75586 649.686 5.36133C649.998 5.9668 650.156 6.66211 650.16 7.44727V7.99219C650.16 8.79688 650.004 9.50195 649.691 10.1074C649.383 10.7129 648.939 11.1777 648.361 11.502C647.787 11.8262 647.117 11.9922 646.352 12H643.99ZM645.115 4.39453V11.0801H646.299C647.166 11.0801 647.84 10.8105 648.32 10.2715C648.805 9.73242 649.047 8.96484 649.047 7.96875V7.4707C649.047 6.50195 648.818 5.75 648.361 5.21484C647.908 4.67578 647.264 4.40234 646.428 4.39453H645.115ZM654.76 6.63281C654.596 6.60547 654.418 6.5918 654.227 6.5918C653.516 6.5918 653.033 6.89453 652.779 7.5V12H651.695V5.66016H652.75L652.768 6.39258C653.123 5.82617 653.627 5.54297 654.279 5.54297C654.49 5.54297 654.65 5.57031 654.76 5.625V6.63281ZM659.441 12C659.379 11.875 659.328 11.6523 659.289 11.332C658.785 11.8555 658.184 12.1172 657.484 12.1172C656.859 12.1172 656.346 11.9414 655.943 11.5898C655.545 11.2344 655.346 10.7852 655.346 10.2422C655.346 9.58203 655.596 9.07031 656.096 8.70703C656.6 8.33984 657.307 8.15625 658.217 8.15625H659.271V7.6582C659.271 7.2793 659.158 6.97852 658.932 6.75586C658.705 6.5293 658.371 6.41602 657.93 6.41602C657.543 6.41602 657.219 6.51367 656.957 6.70898C656.695 6.9043 656.564 7.14062 656.564 7.41797H655.475C655.475 7.10156 655.586 6.79688 655.809 6.50391C656.035 6.20703 656.34 5.97266 656.723 5.80078C657.109 5.62891 657.533 5.54297 657.994 5.54297C658.725 5.54297 659.297 5.72656 659.711 6.09375C660.125 6.45703 660.34 6.95898 660.355 7.59961V10.5176C660.355 11.0996 660.43 11.5625 660.578 11.9062V12H659.441ZM657.643 11.1738C657.982 11.1738 658.305 11.0859 658.609 10.9102C658.914 10.7344 659.135 10.5059 659.271 10.2246V8.92383H658.422C657.094 8.92383 656.43 9.3125 656.43 10.0898C656.43 10.4297 656.543 10.6953 656.77 10.8867C656.996 11.0781 657.287 11.1738 657.643 11.1738ZM661.797 8.77734C661.797 7.78906 662.025 7.00391 662.482 6.42188C662.939 5.83594 663.545 5.54297 664.299 5.54297C665.072 5.54297 665.676 5.81641 666.109 6.36328L666.162 5.66016H667.152V11.8477C667.152 12.668 666.908 13.3145 666.42 13.7871C665.936 14.2598 665.283 14.4961 664.463 14.4961C664.006 14.4961 663.559 14.3984 663.121 14.2031C662.684 14.0078 662.35 13.7402 662.119 13.4004L662.682 12.75C663.146 13.3242 663.715 13.6113 664.387 13.6113C664.914 13.6113 665.324 13.4629 665.617 13.166C665.914 12.8691 666.062 12.4512 666.062 11.9121V11.3672C665.629 11.8672 665.037 12.1172 664.287 12.1172C663.545 12.1172 662.943 11.8184 662.482 11.2207C662.025 10.623 661.797 9.80859 661.797 8.77734ZM662.887 8.90039C662.887 9.61523 663.033 10.1777 663.326 10.5879C663.619 10.9941 664.029 11.1973 664.557 11.1973C665.24 11.1973 665.742 10.8867 666.062 10.2656V7.37109C665.73 6.76562 665.232 6.46289 664.568 6.46289C664.041 6.46289 663.629 6.66797 663.332 7.07812C663.035 7.48828 662.887 8.0957 662.887 8.90039ZM668.506 8.77148C668.506 8.15039 668.627 7.5918 668.869 7.0957C669.115 6.59961 669.455 6.2168 669.889 5.94727C670.326 5.67773 670.824 5.54297 671.383 5.54297C672.246 5.54297 672.943 5.8418 673.475 6.43945C674.01 7.03711 674.277 7.83203 674.277 8.82422V8.90039C674.277 9.51758 674.158 10.0723 673.92 10.5645C673.686 11.0527 673.348 11.4336 672.906 11.707C672.469 11.9805 671.965 12.1172 671.395 12.1172C670.535 12.1172 669.838 11.8184 669.303 11.2207C668.771 10.623 668.506 9.83203 668.506 8.84766V8.77148ZM669.596 8.90039C669.596 9.60352 669.758 10.168 670.082 10.5938C670.41 11.0195 670.848 11.2324 671.395 11.2324C671.945 11.2324 672.383 11.0176 672.707 10.5879C673.031 10.1543 673.193 9.54883 673.193 8.77148C673.193 8.07617 673.027 7.51367 672.695 7.08398C672.367 6.65039 671.93 6.43359 671.383 6.43359C670.848 6.43359 670.416 6.64648 670.088 7.07227C669.76 7.49805 669.596 8.10742 669.596 8.90039ZM676.662 5.66016L676.697 6.45703C677.182 5.84766 677.814 5.54297 678.596 5.54297C679.936 5.54297 680.611 6.29883 680.623 7.81055V12H679.539V7.80469C679.535 7.34766 679.43 7.00977 679.223 6.79102C679.02 6.57227 678.701 6.46289 678.268 6.46289C677.916 6.46289 677.607 6.55664 677.342 6.74414C677.076 6.93164 676.869 7.17773 676.721 7.48242V12H675.637V5.66016H676.662Z" fill="white"/>
<path d="M708.996 3.46875V9.26953C708.992 10.0742 708.738 10.7324 708.234 11.2441C707.734 11.7559 707.055 12.043 706.195 12.1055L705.896 12.1172C704.963 12.1172 704.219 11.8652 703.664 11.3613C703.109 10.8574 702.828 10.1641 702.82 9.28125V3.46875H703.934V9.24609C703.934 9.86328 704.104 10.3438 704.443 10.6875C704.783 11.0273 705.268 11.1973 705.896 11.1973C706.533 11.1973 707.02 11.0273 707.355 10.6875C707.695 10.3477 707.865 9.86914 707.865 9.25195V3.46875H708.996ZM715.957 8.90039C715.957 9.86523 715.736 10.6426 715.295 11.2324C714.854 11.8223 714.256 12.1172 713.502 12.1172C712.732 12.1172 712.127 11.873 711.686 11.3848V14.4375H710.602V5.66016H711.592L711.645 6.36328C712.086 5.81641 712.699 5.54297 713.484 5.54297C714.246 5.54297 714.848 5.83008 715.289 6.4043C715.734 6.97852 715.957 7.77734 715.957 8.80078V8.90039ZM714.873 8.77734C714.873 8.0625 714.721 7.49805 714.416 7.08398C714.111 6.66992 713.693 6.46289 713.162 6.46289C712.506 6.46289 712.014 6.75391 711.686 7.33594V10.3652C712.01 10.9434 712.506 11.2324 713.174 11.2324C713.693 11.2324 714.105 11.0273 714.41 10.6172C714.719 10.2031 714.873 9.58984 714.873 8.77734ZM717.076 8.77734C717.076 7.80469 717.307 7.02344 717.768 6.43359C718.229 5.83984 718.832 5.54297 719.578 5.54297C720.32 5.54297 720.908 5.79688 721.342 6.30469V3H722.426V12H721.43L721.377 11.3203C720.943 11.8516 720.34 12.1172 719.566 12.1172C718.832 12.1172 718.232 11.8164 717.768 11.2148C717.307 10.6133 717.076 9.82812 717.076 8.85938V8.77734ZM718.16 8.90039C718.16 9.61914 718.309 10.1816 718.605 10.5879C718.902 10.9941 719.312 11.1973 719.836 11.1973C720.523 11.1973 721.025 10.8887 721.342 10.2715V7.35938C721.018 6.76172 720.52 6.46289 719.848 6.46289C719.316 6.46289 718.902 6.66797 718.605 7.07812C718.309 7.48828 718.16 8.0957 718.16 8.90039ZM728.027 12C727.965 11.875 727.914 11.6523 727.875 11.332C727.371 11.8555 726.77 12.1172 726.07 12.1172C725.445 12.1172 724.932 11.9414 724.529 11.5898C724.131 11.2344 723.932 10.7852 723.932 10.2422C723.932 9.58203 724.182 9.07031 724.682 8.70703C725.186 8.33984 725.893 8.15625 726.803 8.15625H727.857V7.6582C727.857 7.2793 727.744 6.97852 727.518 6.75586C727.291 6.5293 726.957 6.41602 726.516 6.41602C726.129 6.41602 725.805 6.51367 725.543 6.70898C725.281 6.9043 725.15 7.14062 725.15 7.41797H724.061C724.061 7.10156 724.172 6.79688 724.395 6.50391C724.621 6.20703 724.926 5.97266 725.309 5.80078C725.695 5.62891 726.119 5.54297 726.58 5.54297C727.311 5.54297 727.883 5.72656 728.297 6.09375C728.711 6.45703 728.926 6.95898 728.941 7.59961V10.5176C728.941 11.0996 729.016 11.5625 729.164 11.9062V12H728.027ZM726.229 11.1738C726.568 11.1738 726.891 11.0859 727.195 10.9102C727.5 10.7344 727.721 10.5059 727.857 10.2246V8.92383H727.008C725.68 8.92383 725.016 9.3125 725.016 10.0898C725.016 10.4297 725.129 10.6953 725.355 10.8867C725.582 11.0781 725.873 11.1738 726.229 11.1738ZM732.111 4.125V5.66016H733.295V6.49805H732.111V10.4297C732.111 10.6836 732.164 10.875 732.27 11.0039C732.375 11.1289 732.555 11.1914 732.809 11.1914C732.934 11.1914 733.105 11.168 733.324 11.1211V12C733.039 12.0781 732.762 12.1172 732.492 12.1172C732.008 12.1172 731.643 11.9707 731.396 11.6777C731.15 11.3848 731.027 10.9688 731.027 10.4297V6.49805H729.873V5.66016H731.027V4.125H732.111ZM737.197 12.1172C736.338 12.1172 735.639 11.8359 735.1 11.2734C734.561 10.707 734.291 9.95117 734.291 9.00586V8.80664C734.291 8.17773 734.41 7.61719 734.648 7.125C734.891 6.62891 735.227 6.24219 735.656 5.96484C736.09 5.68359 736.559 5.54297 737.062 5.54297C737.887 5.54297 738.527 5.81445 738.984 6.35742C739.441 6.90039 739.67 7.67773 739.67 8.68945V9.14062H735.375C735.391 9.76562 735.572 10.2715 735.92 10.6582C736.271 11.041 736.717 11.2324 737.256 11.2324C737.639 11.2324 737.963 11.1543 738.229 10.998C738.494 10.8418 738.727 10.6348 738.926 10.377L739.588 10.8926C739.057 11.709 738.26 12.1172 737.197 12.1172ZM737.062 6.43359C736.625 6.43359 736.258 6.59375 735.961 6.91406C735.664 7.23047 735.48 7.67578 735.41 8.25H738.586V8.16797C738.555 7.61719 738.406 7.19141 738.141 6.89062C737.875 6.58594 737.516 6.43359 737.062 6.43359ZM744.621 10.3184C744.621 10.0254 744.51 9.79883 744.287 9.63867C744.068 9.47461 743.684 9.33398 743.133 9.2168C742.586 9.09961 742.15 8.95898 741.826 8.79492C741.506 8.63086 741.268 8.43555 741.111 8.20898C740.959 7.98242 740.883 7.71289 740.883 7.40039C740.883 6.88086 741.102 6.44141 741.539 6.08203C741.98 5.72266 742.543 5.54297 743.227 5.54297C743.945 5.54297 744.527 5.72852 744.973 6.09961C745.422 6.4707 745.646 6.94531 745.646 7.52344H744.557C744.557 7.22656 744.43 6.9707 744.176 6.75586C743.926 6.54102 743.609 6.43359 743.227 6.43359C742.832 6.43359 742.523 6.51953 742.301 6.69141C742.078 6.86328 741.967 7.08789 741.967 7.36523C741.967 7.62695 742.07 7.82422 742.277 7.95703C742.484 8.08984 742.857 8.2168 743.396 8.33789C743.939 8.45898 744.379 8.60352 744.715 8.77148C745.051 8.93945 745.299 9.14258 745.459 9.38086C745.623 9.61523 745.705 9.90234 745.705 10.2422C745.705 10.8086 745.479 11.2637 745.025 11.6074C744.572 11.9473 743.984 12.1172 743.262 12.1172C742.754 12.1172 742.305 12.0273 741.914 11.8477C741.523 11.668 741.217 11.418 740.994 11.0977C740.775 10.7734 740.666 10.4238 740.666 10.0488H741.75C741.77 10.4121 741.914 10.7012 742.184 10.916C742.457 11.127 742.816 11.2324 743.262 11.2324C743.672 11.2324 744 11.1504 744.246 10.9863C744.496 10.8184 744.621 10.5957 744.621 10.3184Z" fill="white"/>
<path d="M1099.7 9.77344H1096.13L1095.32 12H1094.16L1097.42 3.46875H1098.41L1101.67 12H1100.52L1099.7 9.77344ZM1096.47 8.84766H1099.37L1097.91 4.85742L1096.47 8.84766ZM1108.02 8.90039C1108.02 9.86914 1107.79 10.6484 1107.35 11.2383C1106.9 11.8242 1106.3 12.1172 1105.55 12.1172C1104.75 12.1172 1104.13 11.834 1103.7 11.2676L1103.64 12H1102.65V3H1103.73V6.35742C1104.17 5.81445 1104.77 5.54297 1105.54 5.54297C1106.31 5.54297 1106.92 5.83398 1107.35 6.41602C1107.79 6.99805 1108.02 7.79492 1108.02 8.80664V8.90039ZM1106.93 8.77734C1106.93 8.03906 1106.79 7.46875 1106.5 7.06641C1106.22 6.66406 1105.81 6.46289 1105.27 6.46289C1104.56 6.46289 1104.04 6.79492 1103.73 7.45898V10.2012C1104.06 10.8652 1104.58 11.1973 1105.29 11.1973C1105.8 11.1973 1106.21 10.9961 1106.5 10.5938C1106.79 10.1914 1106.93 9.58594 1106.93 8.77734ZM1109.1 8.77148C1109.1 8.15039 1109.22 7.5918 1109.46 7.0957C1109.71 6.59961 1110.05 6.2168 1110.48 5.94727C1110.92 5.67773 1111.42 5.54297 1111.98 5.54297C1112.84 5.54297 1113.54 5.8418 1114.07 6.43945C1114.6 7.03711 1114.87 7.83203 1114.87 8.82422V8.90039C1114.87 9.51758 1114.75 10.0723 1114.51 10.5645C1114.28 11.0527 1113.94 11.4336 1113.5 11.707C1113.06 11.9805 1112.56 12.1172 1111.99 12.1172C1111.13 12.1172 1110.43 11.8184 1109.9 11.2207C1109.37 10.623 1109.1 9.83203 1109.1 8.84766V8.77148ZM1110.19 8.90039C1110.19 9.60352 1110.35 10.168 1110.68 10.5938C1111 11.0195 1111.44 11.2324 1111.99 11.2324C1112.54 11.2324 1112.98 11.0176 1113.3 10.5879C1113.62 10.1543 1113.79 9.54883 1113.79 8.77148C1113.79 8.07617 1113.62 7.51367 1113.29 7.08398C1112.96 6.65039 1112.52 6.43359 1111.98 6.43359C1111.44 6.43359 1111.01 6.64648 1110.68 7.07227C1110.35 7.49805 1110.19 8.10742 1110.19 8.90039ZM1120.14 11.373C1119.72 11.8691 1119.1 12.1172 1118.29 12.1172C1117.61 12.1172 1117.1 11.9219 1116.74 11.5312C1116.39 11.1367 1116.21 10.5547 1116.21 9.78516V5.66016H1117.29V9.75586C1117.29 10.7168 1117.68 11.1973 1118.46 11.1973C1119.29 11.1973 1119.84 10.8887 1120.12 10.2715V5.66016H1121.2V12H1120.17L1120.14 11.373ZM1124.32 4.125V5.66016H1125.51V6.49805H1124.32V10.4297C1124.32 10.6836 1124.38 10.875 1124.48 11.0039C1124.59 11.1289 1124.77 11.1914 1125.02 11.1914C1125.14 11.1914 1125.32 11.168 1125.54 11.1211V12C1125.25 12.0781 1124.97 12.1172 1124.7 12.1172C1124.22 12.1172 1123.85 11.9707 1123.61 11.6777C1123.36 11.3848 1123.24 10.9688 1123.24 10.4297V6.49805H1122.08V5.66016H1123.24V4.125H1124.32Z" fill="#808080"/>
<path d="M1153.29 10.8809C1153 11.2949 1152.6 11.6055 1152.08 11.8125C1151.56 12.0156 1150.96 12.1172 1150.27 12.1172C1149.58 12.1172 1148.96 11.9551 1148.42 11.6309C1147.88 11.3027 1147.46 10.8379 1147.17 10.2363C1146.87 9.63477 1146.72 8.9375 1146.71 8.14453V7.40039C1146.71 6.11523 1147.01 5.11914 1147.61 4.41211C1148.21 3.70508 1149.06 3.35156 1150.14 3.35156C1151.03 3.35156 1151.75 3.58008 1152.29 4.03711C1152.84 4.49023 1153.17 5.13477 1153.29 5.9707H1152.16C1151.95 4.8418 1151.28 4.27734 1150.15 4.27734C1149.39 4.27734 1148.82 4.54297 1148.43 5.07422C1148.04 5.60156 1147.85 6.36719 1147.85 7.37109V8.06836C1147.85 9.02539 1148.06 9.78711 1148.5 10.3535C1148.94 10.916 1149.53 11.1973 1150.28 11.1973C1150.7 11.1973 1151.07 11.1504 1151.38 11.0566C1151.7 10.9629 1151.96 10.8047 1152.17 10.582V8.66602H1150.2V7.75195H1153.29V10.8809ZM1158.91 12C1158.85 11.875 1158.8 11.6523 1158.76 11.332C1158.26 11.8555 1157.66 12.1172 1156.96 12.1172C1156.33 12.1172 1155.82 11.9414 1155.42 11.5898C1155.02 11.2344 1154.82 10.7852 1154.82 10.2422C1154.82 9.58203 1155.07 9.07031 1155.57 8.70703C1156.07 8.33984 1156.78 8.15625 1157.69 8.15625H1158.74V7.6582C1158.74 7.2793 1158.63 6.97852 1158.4 6.75586C1158.18 6.5293 1157.84 6.41602 1157.4 6.41602C1157.02 6.41602 1156.69 6.51367 1156.43 6.70898C1156.17 6.9043 1156.04 7.14062 1156.04 7.41797H1154.95C1154.95 7.10156 1155.06 6.79688 1155.28 6.50391C1155.51 6.20703 1155.81 5.97266 1156.2 5.80078C1156.58 5.62891 1157.01 5.54297 1157.47 5.54297C1158.2 5.54297 1158.77 5.72656 1159.18 6.09375C1159.6 6.45703 1159.81 6.95898 1159.83 7.59961V10.5176C1159.83 11.0996 1159.9 11.5625 1160.05 11.9062V12H1158.91ZM1157.12 11.1738C1157.46 11.1738 1157.78 11.0859 1158.08 10.9102C1158.39 10.7344 1158.61 10.5059 1158.74 10.2246V8.92383H1157.89C1156.57 8.92383 1155.9 9.3125 1155.9 10.0898C1155.9 10.4297 1156.02 10.6953 1156.24 10.8867C1156.47 11.0781 1156.76 11.1738 1157.12 11.1738ZM1162.71 12H1161.62V3H1162.71V12ZM1165.62 12H1164.54V3H1165.62V12ZM1169.99 12.1172C1169.13 12.1172 1168.44 11.8359 1167.9 11.2734C1167.36 10.707 1167.09 9.95117 1167.09 9.00586V8.80664C1167.09 8.17773 1167.21 7.61719 1167.45 7.125C1167.69 6.62891 1168.02 6.24219 1168.45 5.96484C1168.89 5.68359 1169.36 5.54297 1169.86 5.54297C1170.68 5.54297 1171.32 5.81445 1171.78 6.35742C1172.24 6.90039 1172.47 7.67773 1172.47 8.68945V9.14062H1168.17C1168.19 9.76562 1168.37 10.2715 1168.72 10.6582C1169.07 11.041 1169.51 11.2324 1170.05 11.2324C1170.44 11.2324 1170.76 11.1543 1171.03 10.998C1171.29 10.8418 1171.52 10.6348 1171.72 10.377L1172.38 10.8926C1171.85 11.709 1171.06 12.1172 1169.99 12.1172ZM1169.86 6.43359C1169.42 6.43359 1169.05 6.59375 1168.76 6.91406C1168.46 7.23047 1168.28 7.67578 1168.21 8.25H1171.38V8.16797C1171.35 7.61719 1171.2 7.19141 1170.94 6.89062C1170.67 6.58594 1170.31 6.43359 1169.86 6.43359ZM1176.79 6.63281C1176.63 6.60547 1176.45 6.5918 1176.26 6.5918C1175.55 6.5918 1175.06 6.89453 1174.81 7.5V12H1173.73V5.66016H1174.78L1174.8 6.39258C1175.15 5.82617 1175.66 5.54297 1176.31 5.54297C1176.52 5.54297 1176.68 5.57031 1176.79 5.625V6.63281ZM1179.97 10.4121L1181.45 5.66016H1182.61L1180.06 12.9785C1179.67 14.0332 1179.04 14.5605 1178.18 14.5605L1177.97 14.543L1177.57 14.4668V13.5879L1177.86 13.6113C1178.23 13.6113 1178.52 13.5371 1178.72 13.3887C1178.93 13.2402 1179.1 12.9688 1179.23 12.5742L1179.47 11.9297L1177.21 5.66016H1178.39L1179.97 10.4121Z" fill="#808080"/>
<path d="M1206.5 8.19727C1205.54 7.91992 1204.84 7.58008 1204.39 7.17773C1203.96 6.77148 1203.74 6.27148 1203.74 5.67773C1203.74 5.00586 1204.01 4.45117 1204.54 4.01367C1205.08 3.57227 1205.78 3.35156 1206.64 3.35156C1207.22 3.35156 1207.75 3.46484 1208.2 3.69141C1208.66 3.91797 1209.02 4.23047 1209.27 4.62891C1209.52 5.02734 1209.65 5.46289 1209.65 5.93555H1208.52C1208.52 5.41992 1208.36 5.01562 1208.03 4.72266C1207.7 4.42578 1207.24 4.27734 1206.64 4.27734C1206.08 4.27734 1205.65 4.40039 1205.34 4.64648C1205.03 4.88867 1204.88 5.22656 1204.88 5.66016C1204.88 6.00781 1205.02 6.30273 1205.31 6.54492C1205.61 6.7832 1206.11 7.00195 1206.82 7.20117C1207.53 7.40039 1208.09 7.62109 1208.48 7.86328C1208.89 8.10156 1209.18 8.38086 1209.38 8.70117C1209.57 9.02148 1209.67 9.39844 1209.67 9.83203C1209.67 10.5234 1209.4 11.0781 1208.86 11.4961C1208.32 11.9102 1207.6 12.1172 1206.7 12.1172C1206.11 12.1172 1205.56 12.0059 1205.06 11.7832C1204.55 11.5566 1204.16 11.248 1203.88 10.8574C1203.61 10.4668 1203.47 10.0234 1203.47 9.52734H1204.6C1204.6 10.043 1204.79 10.4512 1205.17 10.752C1205.55 11.0488 1206.06 11.1973 1206.7 11.1973C1207.29 11.1973 1207.75 11.0762 1208.06 10.834C1208.38 10.5918 1208.54 10.2617 1208.54 9.84375C1208.54 9.42578 1208.39 9.10352 1208.1 8.87695C1207.8 8.64648 1207.27 8.41992 1206.5 8.19727ZM1212.03 6.42773C1212.51 5.83789 1213.13 5.54297 1213.9 5.54297C1215.24 5.54297 1215.92 6.29883 1215.93 7.81055V12H1214.85V7.80469C1214.84 7.34766 1214.74 7.00977 1214.53 6.79102C1214.33 6.57227 1214.01 6.46289 1213.58 6.46289C1213.22 6.46289 1212.92 6.55664 1212.65 6.74414C1212.38 6.93164 1212.18 7.17773 1212.03 7.48242V12H1210.95V3H1212.03V6.42773ZM1217.27 8.77148C1217.27 8.15039 1217.39 7.5918 1217.63 7.0957C1217.88 6.59961 1218.22 6.2168 1218.65 5.94727C1219.09 5.67773 1219.59 5.54297 1220.14 5.54297C1221.01 5.54297 1221.71 5.8418 1222.24 6.43945C1222.77 7.03711 1223.04 7.83203 1223.04 8.82422V8.90039C1223.04 9.51758 1222.92 10.0723 1222.68 10.5645C1222.45 11.0527 1222.11 11.4336 1221.67 11.707C1221.23 11.9805 1220.73 12.1172 1220.16 12.1172C1219.3 12.1172 1218.6 11.8184 1218.06 11.2207C1217.53 10.623 1217.27 9.83203 1217.27 8.84766V8.77148ZM1218.36 8.90039C1218.36 9.60352 1218.52 10.168 1218.84 10.5938C1219.17 11.0195 1219.61 11.2324 1220.16 11.2324C1220.71 11.2324 1221.14 11.0176 1221.47 10.5879C1221.79 10.1543 1221.96 9.54883 1221.96 8.77148C1221.96 8.07617 1221.79 7.51367 1221.46 7.08398C1221.13 6.65039 1220.69 6.43359 1220.14 6.43359C1219.61 6.43359 1219.18 6.64648 1218.85 7.07227C1218.52 7.49805 1218.36 8.10742 1218.36 8.90039ZM1229.75 8.90039C1229.75 9.86523 1229.53 10.6426 1229.09 11.2324C1228.65 11.8223 1228.05 12.1172 1227.3 12.1172C1226.53 12.1172 1225.92 11.873 1225.48 11.3848V14.4375H1224.4V5.66016H1225.39L1225.44 6.36328C1225.88 5.81641 1226.5 5.54297 1227.28 5.54297C1228.04 5.54297 1228.64 5.83008 1229.09 6.4043C1229.53 6.97852 1229.75 7.77734 1229.75 8.80078V8.90039ZM1228.67 8.77734C1228.67 8.0625 1228.52 7.49805 1228.21 7.08398C1227.91 6.66992 1227.49 6.46289 1226.96 6.46289C1226.3 6.46289 1225.81 6.75391 1225.48 7.33594V10.3652C1225.81 10.9434 1226.3 11.2324 1226.97 11.2324C1227.49 11.2324 1227.9 11.0273 1228.21 10.6172C1228.52 10.2031 1228.67 9.58984 1228.67 8.77734Z" fill="#808080"/>
</svg>
